<mxfile host="65bd71144e">
    <diagram id="ul-tCbS_ZGL39hckQb31" name="Page-1">
        <mxGraphModel dx="912" dy="862" grid="1" gridSize="10" guides="1" tooltips="1" connect="1" arrows="1" fold="1" page="1" pageScale="1" pageWidth="850" pageHeight="1100" math="0" shadow="0">
            <root>
                <mxCell id="0"/>
                <mxCell id="1" parent="0"/>
                <mxCell id="364" value="" style="rounded=0;whiteSpace=wrap;html=1;strokeColor=none;fontSize=20;" vertex="1" parent="1">
                    <mxGeometry x="40" y="290" width="760" height="590" as="geometry"/>
                </mxCell>
                <mxCell id="365" style="edgeStyle=elbowEdgeStyle;elbow=vertical;html=1;fontSize=20;" edge="1" parent="1" source="367" target="371">
                    <mxGeometry relative="1" as="geometry">
                        <mxPoint x="390" y="436" as="targetPoint"/>
                        <Array as="points">
                            <mxPoint x="380" y="430"/>
                        </Array>
                    </mxGeometry>
                </mxCell>
                <mxCell id="366" value="请求页面&amp;nbsp; /user" style="edgeLabel;html=1;align=center;verticalAlign=middle;resizable=0;points=[];fontSize=20;" vertex="1" connectable="0" parent="365">
                    <mxGeometry x="-0.1804" y="1" relative="1" as="geometry">
                        <mxPoint x="19" y="5" as="offset"/>
                    </mxGeometry>
                </mxCell>
                <mxCell id="367" value="" style="dashed=0;outlineConnect=0;html=1;align=center;labelPosition=center;verticalLabelPosition=bottom;verticalAlign=top;shape=mxgraph.weblogos.chrome;fontSize=20;" vertex="1" parent="1">
                    <mxGeometry x="80" y="420" width="74.8" height="75.4" as="geometry"/>
                </mxCell>
                <mxCell id="368" value="User1" style="text;html=1;strokeColor=none;fillColor=none;align=center;verticalAlign=middle;whiteSpace=wrap;rounded=0;fontSize=20;" vertex="1" parent="1">
                    <mxGeometry x="87" y="495.4" width="60" height="30" as="geometry"/>
                </mxCell>
                <mxCell id="369" value="" style="dashed=0;outlineConnect=0;html=1;align=center;labelPosition=center;verticalLabelPosition=bottom;verticalAlign=top;shape=mxgraph.weblogos.chrome;fontSize=20;" vertex="1" parent="1">
                    <mxGeometry x="80" y="670" width="74.8" height="75.4" as="geometry"/>
                </mxCell>
                <mxCell id="370" value="User2" style="text;html=1;strokeColor=none;fillColor=none;align=center;verticalAlign=middle;whiteSpace=wrap;rounded=0;fontSize=20;" vertex="1" parent="1">
                    <mxGeometry x="87" y="750" width="60" height="30" as="geometry"/>
                </mxCell>
                <mxCell id="371" value="" style="rounded=0;whiteSpace=wrap;html=1;fontSize=20;" vertex="1" parent="1">
                    <mxGeometry x="390" y="348" width="370" height="472" as="geometry"/>
                </mxCell>
                <mxCell id="372" value="Next.js App" style="text;html=1;strokeColor=none;fillColor=none;align=center;verticalAlign=middle;whiteSpace=wrap;rounded=0;fontSize=20;" vertex="1" parent="1">
                    <mxGeometry x="500" y="362.7" width="120" height="30" as="geometry"/>
                </mxCell>
                <mxCell id="373" style="edgeStyle=elbowEdgeStyle;elbow=vertical;html=1;entryX=0;entryY=0.25;entryDx=0;entryDy=0;fontSize=20;" edge="1" parent="1">
                    <mxGeometry relative="1" as="geometry">
                        <mxPoint x="154.79999999999995" y="685.45" as="sourcePoint"/>
                        <mxPoint x="390" y="685.45" as="targetPoint"/>
                    </mxGeometry>
                </mxCell>
                <mxCell id="374" value="请求页面&amp;nbsp; /user" style="edgeLabel;html=1;align=center;verticalAlign=middle;resizable=0;points=[];fontSize=20;" vertex="1" connectable="0" parent="373">
                    <mxGeometry x="-0.1804" y="1" relative="1" as="geometry">
                        <mxPoint x="19" y="5" as="offset"/>
                    </mxGeometry>
                </mxCell>
                <mxCell id="375" style="edgeStyle=elbowEdgeStyle;elbow=vertical;html=1;fontSize=20;exitX=0;exitY=0.5;exitDx=0;exitDy=0;" edge="1" parent="1" source="381">
                    <mxGeometry relative="1" as="geometry">
                        <mxPoint x="160" y="749.45" as="targetPoint"/>
                        <mxPoint x="390" y="749.0863636363636" as="sourcePoint"/>
                    </mxGeometry>
                </mxCell>
                <mxCell id="376" value="返回新版本页面" style="edgeLabel;html=1;align=center;verticalAlign=middle;resizable=0;points=[];fontSize=20;" vertex="1" connectable="0" parent="375">
                    <mxGeometry x="0.3236" y="2" relative="1" as="geometry">
                        <mxPoint x="33" y="-2" as="offset"/>
                    </mxGeometry>
                </mxCell>
                <mxCell id="377" value="重构建进程" style="rounded=0;whiteSpace=wrap;html=1;fontSize=20;" vertex="1" parent="1">
                    <mxGeometry x="620" y="400" width="120" height="60" as="geometry"/>
                </mxCell>
                <mxCell id="378" value="" style="endArrow=classic;html=1;fontSize=20;elbow=vertical;entryX=0;entryY=0.5;entryDx=0;entryDy=0;" edge="1" parent="1" target="377">
                    <mxGeometry width="50" height="50" relative="1" as="geometry">
                        <mxPoint x="390" y="430" as="sourcePoint"/>
                        <mxPoint x="620" y="350" as="targetPoint"/>
                    </mxGeometry>
                </mxCell>
                <mxCell id="379" value="触发" style="edgeLabel;html=1;align=center;verticalAlign=middle;resizable=0;points=[];fontSize=20;" vertex="1" connectable="0" parent="378">
                    <mxGeometry x="-0.215" y="3" relative="1" as="geometry">
                        <mxPoint x="20" y="3" as="offset"/>
                    </mxGeometry>
                </mxCell>
                <mxCell id="380" value="fallback页面&lt;br&gt;或&lt;br&gt;旧版本/user 页面" style="rounded=0;whiteSpace=wrap;html=1;fontSize=20;strokeColor=#FF9999;" vertex="1" parent="1">
                    <mxGeometry x="400" y="450" width="190" height="90" as="geometry"/>
                </mxCell>
                <mxCell id="381" value="新版本&lt;br&gt;/user 页面" style="rounded=0;whiteSpace=wrap;html=1;strokeColor=#B3FF66;fontSize=20;" vertex="1" parent="1">
                    <mxGeometry x="410" y="720" width="120" height="60" as="geometry"/>
                </mxCell>
                <mxCell id="382" value="" style="endArrow=classic;html=1;fontSize=20;elbow=vertical;entryX=1;entryY=0.5;entryDx=0;entryDy=0;exitX=0.5;exitY=1;exitDx=0;exitDy=0;" edge="1" parent="1" source="377" target="381">
                    <mxGeometry width="50" height="50" relative="1" as="geometry">
                        <mxPoint x="480" y="550" as="sourcePoint"/>
                        <mxPoint x="530" y="500" as="targetPoint"/>
                    </mxGeometry>
                </mxCell>
                <mxCell id="383" value="构建" style="edgeLabel;html=1;align=center;verticalAlign=middle;resizable=0;points=[];fontSize=20;" vertex="1" connectable="0" parent="382">
                    <mxGeometry x="-0.0473" relative="1" as="geometry">
                        <mxPoint y="1" as="offset"/>
                    </mxGeometry>
                </mxCell>
                <mxCell id="384" style="edgeStyle=elbowEdgeStyle;elbow=vertical;html=1;fontSize=20;" edge="1" parent="1" source="380">
                    <mxGeometry relative="1" as="geometry">
                        <mxPoint x="160" y="480.36" as="targetPoint"/>
                        <mxPoint x="410" y="480" as="sourcePoint"/>
                    </mxGeometry>
                </mxCell>
                <mxCell id="385" value="返回旧版本页面" style="edgeLabel;html=1;align=center;verticalAlign=middle;resizable=0;points=[];fontSize=20;" vertex="1" connectable="0" parent="384">
                    <mxGeometry x="0.3236" y="2" relative="1" as="geometry">
                        <mxPoint x="33" y="-2" as="offset"/>
                    </mxGeometry>
                </mxCell>
            </root>
        </mxGraphModel>
    </diagram>
</mxfile>